<mxfile host="Electron" modified="2023-05-09T00:51:59.670Z" agent="Mozilla/5.0 (Windows NT 10.0; Win64; x64) AppleWebKit/537.36 (KHTML, like Gecko) draw.io/21.2.8 Chrome/112.0.5615.165 Electron/24.2.0 Safari/537.36" etag="s24xDToD91A1dXfhdbVR" version="21.2.8" type="device">
  <diagram name="Página-1" id="s_G4tPw0PxWFY3eTVUdU">
    <mxGraphModel dx="1098" dy="648" grid="1" gridSize="10" guides="1" tooltips="1" connect="1" arrows="1" fold="1" page="1" pageScale="1" pageWidth="827" pageHeight="1169" math="0" shadow="0">
      <root>
        <mxCell id="0" />
        <mxCell id="1" parent="0" />
        <mxCell id="hxijfqRXHmoLubnQIcO9-1" value="CONFIRMAR&lt;br&gt;DECISÃO DE&lt;br&gt;CADASTRO" style="rounded=1;whiteSpace=wrap;html=1;" parent="1" vertex="1">
          <mxGeometry x="70" y="150" width="120" height="60" as="geometry" />
        </mxCell>
        <mxCell id="hxijfqRXHmoLubnQIcO9-2" value="INFORMAR OS ALUNOS DOS TERMOS DE USO" style="rounded=1;whiteSpace=wrap;html=1;" parent="1" vertex="1">
          <mxGeometry x="70" y="290" width="120" height="60" as="geometry" />
        </mxCell>
        <mxCell id="hxijfqRXHmoLubnQIcO9-3" value="REGISTRAR DECISÃO&lt;br&gt;DE CADASTRO" style="rounded=1;whiteSpace=wrap;html=1;" parent="1" vertex="1">
          <mxGeometry x="70" y="440" width="120" height="60" as="geometry" />
        </mxCell>
        <mxCell id="hxijfqRXHmoLubnQIcO9-4" value="REALIZAR SIMULADOS" style="rounded=1;whiteSpace=wrap;html=1;" parent="1" vertex="1">
          <mxGeometry x="310" y="150" width="120" height="60" as="geometry" />
        </mxCell>
        <mxCell id="hxijfqRXHmoLubnQIcO9-5" value="GERAR RESULTADOS&lt;br&gt;SIMULADOS" style="rounded=1;whiteSpace=wrap;html=1;" parent="1" vertex="1">
          <mxGeometry x="310" y="300" width="120" height="60" as="geometry" />
        </mxCell>
        <mxCell id="hxijfqRXHmoLubnQIcO9-7" value="DICAS REDAÇÃO" style="rounded=1;whiteSpace=wrap;html=1;" parent="1" vertex="1">
          <mxGeometry x="580" y="160" width="120" height="60" as="geometry" />
        </mxCell>
        <mxCell id="hxijfqRXHmoLubnQIcO9-8" value="ACESSAR&lt;br&gt;VÍDEO AULAS/&lt;br&gt;DÚVIDAS" style="rounded=1;whiteSpace=wrap;html=1;" parent="1" vertex="1">
          <mxGeometry x="310" y="450" width="120" height="60" as="geometry" />
        </mxCell>
        <mxCell id="hxijfqRXHmoLubnQIcO9-11" style="edgeStyle=orthogonalEdgeStyle;rounded=0;orthogonalLoop=1;jettySize=auto;html=1;exitX=0.5;exitY=1;exitDx=0;exitDy=0;" parent="1" source="hxijfqRXHmoLubnQIcO9-1" target="hxijfqRXHmoLubnQIcO9-1" edge="1">
          <mxGeometry relative="1" as="geometry" />
        </mxCell>
        <mxCell id="hxijfqRXHmoLubnQIcO9-13" value="" style="endArrow=classic;html=1;rounded=0;" parent="1" source="hxijfqRXHmoLubnQIcO9-1" edge="1">
          <mxGeometry width="50" height="50" relative="1" as="geometry">
            <mxPoint x="130" y="260" as="sourcePoint" />
            <mxPoint x="130" y="280.71067811865476" as="targetPoint" />
          </mxGeometry>
        </mxCell>
        <mxCell id="hxijfqRXHmoLubnQIcO9-14" value="" style="endArrow=classic;html=1;rounded=0;" parent="1" source="hxijfqRXHmoLubnQIcO9-2" edge="1">
          <mxGeometry width="50" height="50" relative="1" as="geometry">
            <mxPoint x="130" y="400" as="sourcePoint" />
            <mxPoint x="130" y="420.71067811865476" as="targetPoint" />
          </mxGeometry>
        </mxCell>
        <mxCell id="hxijfqRXHmoLubnQIcO9-16" value="" style="endArrow=classic;html=1;rounded=0;" parent="1" source="hxijfqRXHmoLubnQIcO9-4" edge="1">
          <mxGeometry width="50" height="50" relative="1" as="geometry">
            <mxPoint x="370" y="260" as="sourcePoint" />
            <mxPoint x="370" y="280.71067811865476" as="targetPoint" />
          </mxGeometry>
        </mxCell>
        <mxCell id="hxijfqRXHmoLubnQIcO9-17" value="" style="endArrow=classic;html=1;rounded=0;" parent="1" source="hxijfqRXHmoLubnQIcO9-5" edge="1">
          <mxGeometry width="50" height="50" relative="1" as="geometry">
            <mxPoint x="370" y="410" as="sourcePoint" />
            <mxPoint x="370" y="430.71067811865476" as="targetPoint" />
          </mxGeometry>
        </mxCell>
        <mxCell id="hxijfqRXHmoLubnQIcO9-19" value="SISTEMA&lt;br&gt;LOGIN/CADASTRO&lt;br&gt;" style="rounded=0;whiteSpace=wrap;html=1;" parent="1" vertex="1">
          <mxGeometry x="55" y="570" width="150" height="30" as="geometry" />
        </mxCell>
        <mxCell id="hxijfqRXHmoLubnQIcO9-20" value="SISTEMA&lt;br&gt;SIMULADO" style="rounded=0;whiteSpace=wrap;html=1;" parent="1" vertex="1">
          <mxGeometry x="295" y="570" width="150" height="30" as="geometry" />
        </mxCell>
        <mxCell id="hxijfqRXHmoLubnQIcO9-21" value="SISTEMA&lt;br&gt;REDAÇÃO" style="rounded=0;whiteSpace=wrap;html=1;" parent="1" vertex="1">
          <mxGeometry x="570" y="570" width="150" height="30" as="geometry" />
        </mxCell>
        <mxCell id="hxijfqRXHmoLubnQIcO9-22" value="ACESSAR&lt;br&gt;VÍDEO AULAS/&lt;br&gt;DÚVIDAS" style="rounded=1;whiteSpace=wrap;html=1;" parent="1" vertex="1">
          <mxGeometry x="310" y="450" width="120" height="60" as="geometry" />
        </mxCell>
        <mxCell id="hxijfqRXHmoLubnQIcO9-23" value="ACESSAR&lt;br&gt;VÍDEO AULAS/&lt;br&gt;DÚVIDAS" style="rounded=1;whiteSpace=wrap;html=1;" parent="1" vertex="1">
          <mxGeometry x="580" y="300" width="120" height="60" as="geometry" />
        </mxCell>
        <mxCell id="hxijfqRXHmoLubnQIcO9-24" value="" style="endArrow=classic;html=1;rounded=0;" parent="1" source="hxijfqRXHmoLubnQIcO9-7" edge="1">
          <mxGeometry width="50" height="50" relative="1" as="geometry">
            <mxPoint x="640" y="410" as="sourcePoint" />
            <mxPoint x="640" y="260" as="targetPoint" />
          </mxGeometry>
        </mxCell>
        <mxCell id="hxijfqRXHmoLubnQIcO9-25" value="" style="endArrow=none;html=1;rounded=0;strokeWidth=3;" parent="1" edge="1">
          <mxGeometry width="50" height="50" relative="1" as="geometry">
            <mxPoint x="240" y="480" as="sourcePoint" />
            <mxPoint x="240" y="160" as="targetPoint" />
          </mxGeometry>
        </mxCell>
        <mxCell id="hxijfqRXHmoLubnQIcO9-27" value="" style="endArrow=classic;html=1;rounded=0;" parent="1" edge="1">
          <mxGeometry width="50" height="50" relative="1" as="geometry">
            <mxPoint x="240" y="330" as="sourcePoint" />
            <mxPoint x="270" y="330" as="targetPoint" />
          </mxGeometry>
        </mxCell>
        <mxCell id="hxijfqRXHmoLubnQIcO9-28" value="" style="endArrow=none;html=1;rounded=0;strokeWidth=3;" parent="1" edge="1">
          <mxGeometry width="50" height="50" relative="1" as="geometry">
            <mxPoint x="500" y="480" as="sourcePoint" />
            <mxPoint x="500" y="160" as="targetPoint" />
          </mxGeometry>
        </mxCell>
        <mxCell id="hxijfqRXHmoLubnQIcO9-29" value="" style="endArrow=classic;html=1;rounded=0;" parent="1" edge="1">
          <mxGeometry width="50" height="50" relative="1" as="geometry">
            <mxPoint x="500" y="329.5" as="sourcePoint" />
            <mxPoint x="530" y="329.5" as="targetPoint" />
            <Array as="points">
              <mxPoint x="530" y="329.5" />
            </Array>
          </mxGeometry>
        </mxCell>
        <mxCell id="hxijfqRXHmoLubnQIcO9-30" value="" style="endArrow=classic;html=1;rounded=0;" parent="1" edge="1">
          <mxGeometry width="50" height="50" relative="1" as="geometry">
            <mxPoint x="129.5" y="570" as="sourcePoint" />
            <mxPoint x="129.5" y="530" as="targetPoint" />
          </mxGeometry>
        </mxCell>
        <mxCell id="hxijfqRXHmoLubnQIcO9-31" value="" style="endArrow=classic;html=1;rounded=0;" parent="1" edge="1">
          <mxGeometry width="50" height="50" relative="1" as="geometry">
            <mxPoint x="369.5" y="570" as="sourcePoint" />
            <mxPoint x="369.5" y="530" as="targetPoint" />
          </mxGeometry>
        </mxCell>
        <mxCell id="hxijfqRXHmoLubnQIcO9-36" value="" style="endArrow=classic;html=1;rounded=0;" parent="1" edge="1">
          <mxGeometry width="50" height="50" relative="1" as="geometry">
            <mxPoint x="639.5" y="570" as="sourcePoint" />
            <mxPoint x="639.5" y="530" as="targetPoint" />
          </mxGeometry>
        </mxCell>
        <mxCell id="hxijfqRXHmoLubnQIcO9-37" value="INFORMAS&lt;br&gt;OS RESULTADOS&lt;br&gt;SIMULADO" style="rounded=1;whiteSpace=wrap;html=1;" parent="1" vertex="1">
          <mxGeometry x="840" y="310" width="130" height="60" as="geometry" />
        </mxCell>
        <mxCell id="hxijfqRXHmoLubnQIcO9-38" value="" style="endArrow=none;html=1;rounded=0;strokeWidth=3;" parent="1" edge="1">
          <mxGeometry width="50" height="50" relative="1" as="geometry">
            <mxPoint x="750" y="480" as="sourcePoint" />
            <mxPoint x="750" y="160" as="targetPoint" />
          </mxGeometry>
        </mxCell>
        <mxCell id="hxijfqRXHmoLubnQIcO9-39" value="" style="endArrow=classic;html=1;rounded=0;" parent="1" edge="1">
          <mxGeometry width="50" height="50" relative="1" as="geometry">
            <mxPoint x="750" y="329.5" as="sourcePoint" />
            <mxPoint x="780" y="329.5" as="targetPoint" />
            <Array as="points">
              <mxPoint x="780" y="329.5" />
            </Array>
          </mxGeometry>
        </mxCell>
      </root>
    </mxGraphModel>
  </diagram>
</mxfile>
